<svg width="260" height="33" viewBox="0 0 260 33" fill="none" xmlns="http://www.w3.org/2000/svg">
<path d="M143.187 4.00003H116.812C115.264 4.00003 114 5.26224 114 6.81331V25.5627C114 27.1068 115.257 28.3742 116.812 28.3742H143.187C144.733 28.3742 146 27.1173 146 25.5627V6.81331C146 5.2675 144.741 4.00003 143.187 4.00003ZM142.798 5.87497L130.059 18.6144L117.209 5.87497H142.798ZM115.875 25.1741V7.19145L124.905 16.1442L115.875 25.1741ZM117.2 26.4993L126.235 17.4642L129.402 20.6031C129.768 20.9673 130.36 20.9655 130.724 20.5996L133.812 17.5132L142.798 26.4993H117.2ZM144.125 25.1741L135.137 16.188L144.125 7.2002V25.1741Z" fill="#DDDDDD"/>
<path d="M79.5914 31.9983C78.188 31.9983 76.7989 31.6864 75.5444 31.0964C74.6514 31.2417 73.8842 31.3108 73.1577 31.3108C64.697 31.3108 57.8133 24.5103 57.8133 16.1524C57.8133 15.3391 57.893 14.4922 58.0596 13.5761C57.365 12.2596 57 10.789 57 9.2935C57 4.16924 61.2206 3.05176e-05 66.4104 3.05176e-05C68.0246 3.05176e-05 69.6016 0.407561 71.0013 1.18364C71.6392 1.10036 72.3373 1.06315 73.1577 1.06315C77.2454 1.06315 81.0833 2.62772 83.9643 5.4698C86.849 8.31719 88.4365 12.1108 88.4365 16.1524C88.4365 17.2244 88.3639 18.1316 88.208 18.9732C88.7342 20.1444 89 21.3989 89 22.7048C89 27.829 84.7794 31.9983 79.5914 31.9983ZM75.9395 28.4864L76.3223 28.6902C77.3163 29.22 78.4467 29.4981 79.5914 29.4981C83.4009 29.4981 86.4999 26.4505 86.4999 22.7048C86.4999 21.6434 86.2589 20.6317 85.7858 19.6979L85.5821 19.2975L85.6813 18.8581C85.8549 18.0802 85.9364 17.2208 85.9364 16.1524C85.9364 9.21022 80.2044 3.56149 73.1577 3.56149C72.2771 3.56149 71.579 3.6111 70.9588 3.71564L70.491 3.79538L70.0888 3.54554C68.9885 2.8616 67.7163 2.50014 66.4104 2.50014C62.6009 2.50014 59.5001 5.54776 59.5001 9.2935C59.5001 10.5019 59.8279 11.6873 60.4463 12.7238L60.6961 13.142L60.5969 13.6169C60.4055 14.5453 60.3134 15.3746 60.3134 16.1524C60.3134 23.1318 66.0755 28.8107 73.1577 28.8107C73.8416 28.8107 74.5894 28.7327 75.5107 28.5644L75.9395 28.4864ZM81.062 19.4286C81.062 18.5285 80.8848 17.756 80.5305 17.1305C80.1761 16.5086 79.6782 15.9859 79.0527 15.5801C78.4361 15.1814 77.6813 14.8395 76.8078 14.5613C75.9449 14.2866 74.9703 14.035 73.909 13.8082C73.0691 13.6151 72.4578 13.4645 72.0946 13.3653C71.7384 13.2678 71.3841 13.1296 71.0385 12.9577C70.7054 12.7929 70.4432 12.5945 70.2554 12.3695C70.08 12.1551 69.9364 11.907 69.9364 11.6111C69.9364 11.1256 70.2607 10.7163 70.8082 10.3602C71.3752 9.98984 72.1389 9.83746 73.0797 9.83746C74.0915 9.83746 74.8286 9.97389 75.2698 10.3052C75.7234 10.6472 76.1185 11.1345 76.4463 11.7529C76.728 12.2366 76.9832 12.5732 77.2295 12.7894C77.4935 13.0215 77.8744 13.1243 78.3599 13.1243C78.8932 13.1243 79.3486 12.9506 79.7048 12.5803C80.0627 12.2118 80.3125 11.7865 80.3125 11.3205C80.3125 10.8386 80.1052 10.3389 79.8341 9.83569C79.563 9.33779 79.136 8.85939 78.5584 8.40933C77.986 7.96459 77.256 7.6049 76.3931 7.33735C75.5338 7.0698 74.5025 6.93691 73.3313 6.93691C71.8678 6.93691 70.5725 7.13713 69.4846 7.53934C68.3825 7.94333 67.5249 8.53691 66.9402 9.29527C66.3484 10.0607 66.0011 10.9484 66.0011 11.9336C66.0011 12.9684 66.3324 13.8454 66.8959 14.5453C67.4505 15.2346 68.2071 15.7856 69.1497 16.1843C70.0693 16.5723 71.2246 16.9143 72.5854 17.2049C73.5865 17.4158 74.3962 17.6142 74.9916 17.7985C75.5621 17.9739 76.0352 18.2344 76.3931 18.5657C76.7316 18.8829 76.9176 19.2868 76.9176 19.8025C76.9176 20.4527 76.5792 20.9861 75.9271 21.429C75.2591 21.8826 74.3697 22.0616 73.287 22.0616C72.4968 22.0616 71.8571 21.9996 71.3823 21.7746C70.9074 21.5531 70.5371 21.2678 70.2819 20.9311C70.0126 20.5768 69.7592 20.132 69.5271 19.6022C69.3198 19.1167 69.0611 18.7393 68.7581 18.486C68.4427 18.2202 68.0529 18.0625 67.6029 18.0625C67.0554 18.0625 66.5947 18.2574 66.2332 18.5923C65.8718 18.9307 65.6875 19.3453 65.6875 19.822C65.6875 20.5874 65.971 21.3794 66.5291 22.1768C67.0784 22.967 67.8066 23.6084 68.6873 24.0815C69.9187 24.7336 71.4992 25.0614 73.3827 25.0614C74.9508 25.0614 76.3293 24.8204 77.4793 24.3455C78.6416 23.8671 79.5364 23.1903 80.1442 22.3362C80.7537 21.4804 81.0602 20.5024 81.062 19.4286Z" fill="#DDDDDD"/>
<path fill-rule="evenodd" clip-rule="evenodd" d="M198.163 4.82766C200.721 7.38169 202.384 10.589 202.986 14.1141C203.074 14.6076 202.736 15.0797 202.242 15.1533C202.236 15.154 202.23 15.1548 202.225 15.1556C202.178 15.1619 202.135 15.1676 202.087 15.1676C201.647 15.1676 201.262 14.8571 201.187 14.412C200.653 11.2639 199.164 8.39397 196.88 6.11096C194.593 3.83513 191.719 2.34363 188.566 1.81057C188.066 1.72262 187.735 1.25597 187.816 0.757006C187.904 0.26343 188.371 -0.073996 188.864 0.0139503C192.395 0.615216 195.607 2.27543 198.163 4.82766ZM196.304 19.8239C195.648 19.1419 194.857 18.7776 194.017 18.7776C193.185 18.7776 192.387 19.1347 191.704 19.8168L189.566 21.9454C189.447 21.8801 189.326 21.8181 189.208 21.7572L189.208 21.7572C189.153 21.7295 189.1 21.7019 189.047 21.6744C188.802 21.5524 188.574 21.4375 188.376 21.3172C186.376 20.0465 184.555 18.3917 182.811 16.2522C181.964 15.1843 181.396 14.2869 180.985 13.3751C181.469 12.9324 181.923 12.4732 182.365 12.0263L182.365 12.0263L182.554 11.8352C182.64 11.7497 182.725 11.6624 182.811 11.5749L182.811 11.5749C182.914 11.4695 183.018 11.3638 183.122 11.2609C184.542 9.84294 184.542 8.00684 183.122 6.58714L181.276 4.74386C181.066 4.53566 180.85 4.31848 180.647 4.10311C180.24 3.68312 179.814 3.25236 179.374 2.84673C178.718 2.1988 177.934 1.8542 177.109 1.8542C176.284 1.8542 175.486 2.1988 174.81 2.84673C174.803 2.85391 174.803 2.85391 174.795 2.85929L174.795 2.85929L172.496 5.17641C171.63 6.04151 171.137 7.09507 171.028 8.31734C170.866 10.2881 171.448 12.126 171.894 13.3267C172.989 16.2792 174.626 19.0127 177.068 21.9454C180.03 25.4758 183.595 28.265 187.666 30.2303C189.223 30.9662 191.299 31.8367 193.618 31.9856C193.76 31.9928 193.91 32 194.044 32C195.606 32 196.919 31.44 197.947 30.3254C197.951 30.3183 197.956 30.3129 197.961 30.3077C197.966 30.3026 197.971 30.2976 197.974 30.2913C198.304 29.8924 198.682 29.5283 199.079 29.1455L199.159 29.0691C199.45 28.7927 199.746 28.5019 200.038 28.1968C200.706 27.5022 201.059 26.6909 201.059 25.8617C201.059 25.0235 200.701 24.2195 200.018 23.5446L196.304 19.8239ZM198.725 26.935C198.503 27.1741 198.276 27.3941 198.036 27.6271L197.9 27.7588C197.46 28.177 197.014 28.6168 196.595 29.1085C195.912 29.839 195.107 30.1836 194.052 30.1836C193.949 30.1836 193.843 30.1836 193.741 30.1765C191.731 30.0472 189.865 29.2647 188.465 28.5952C184.637 26.7466 181.276 24.1189 178.482 20.7896C176.176 18.0148 174.634 15.4482 173.613 12.6931C172.983 11.0114 172.753 9.70115 172.854 8.46632C172.922 7.6748 173.226 7.01969 173.789 6.45971L176.093 4.15695C176.426 3.84645 176.776 3.67773 177.122 3.67773C177.548 3.67773 177.893 3.93439 178.11 4.14977C178.113 4.15223 178.115 4.1547 178.117 4.15709C178.121 4.16167 178.125 4.16598 178.13 4.16951C178.543 4.5554 178.935 4.95385 179.347 5.37922C179.438 5.47232 179.53 5.56575 179.623 5.65981L179.623 5.65987L179.623 5.65991C179.745 5.78342 179.868 5.90801 179.991 6.03433L181.837 7.87761C182.554 8.59375 182.554 9.25604 181.837 9.97037C181.787 10.0203 181.738 10.0702 181.689 10.1198C181.544 10.2664 181.401 10.4111 181.256 10.5519C180.686 11.1334 180.145 11.6737 179.557 12.1995C179.552 12.2047 179.547 12.2087 179.543 12.2124C179.535 12.2189 179.528 12.2245 179.523 12.2336C178.943 12.8134 179.05 13.3823 179.173 13.7664C179.178 13.7862 179.185 13.8077 179.192 13.8274C179.672 14.9887 180.348 16.0835 181.377 17.3866L181.384 17.392C183.25 19.6893 185.218 21.4788 187.39 22.85C187.659 23.0197 187.936 23.1586 188.201 23.2919L188.201 23.2919L188.222 23.3023C188.465 23.4226 188.695 23.5374 188.891 23.6595C188.902 23.6656 188.914 23.6728 188.925 23.6799C188.941 23.6894 188.956 23.699 188.971 23.7061C189.202 23.821 189.419 23.8749 189.642 23.8749C190.203 23.8749 190.555 23.5249 190.67 23.41L192.982 21.1001C193.214 20.8703 193.579 20.5939 194.005 20.5939C194.424 20.5939 194.769 20.8578 194.977 21.0875C194.982 21.091 194.984 21.0923 194.986 21.0947C194.988 21.096 194.989 21.0976 194.992 21.1L194.992 21.1001L198.718 24.8207C199.416 25.5099 199.416 26.2189 198.725 26.935ZM188.3 7.61058C190.071 7.90852 191.682 8.74491 192.967 10.0282C194.252 11.3115 195.085 12.9179 195.388 14.6876C195.462 15.1345 195.849 15.445 196.287 15.445C196.337 15.445 196.38 15.4392 196.427 15.4328L196.444 15.4306C196.943 15.3499 197.276 14.8778 197.195 14.3771C196.828 12.2358 195.814 10.2849 194.265 8.73953C192.717 7.19239 190.763 6.17832 188.619 5.81397C188.117 5.7332 187.65 6.06524 187.563 6.55702C187.475 7.0506 187.801 7.52982 188.3 7.61058Z" fill="#DDDDDD"/>
<path fill-rule="evenodd" clip-rule="evenodd" d="M243.993 0C248.268 0 252.281 1.66459 255.305 4.68859C258.329 7.7126 260 11.725 260 16.0009C260 20.2768 258.336 24.2874 255.312 27.3114C252.227 30.3978 248.126 32 243.986 32C241.408 32 238.81 31.3775 236.436 30.0996C234.304 31.6359 232.221 31.9671 230.806 31.9671C230.279 31.9671 229.845 31.9202 229.541 31.8717C228.891 31.7711 228.39 31.2631 228.288 30.6146C228.188 29.9643 228.518 29.3349 229.107 29.0436C230.332 28.4419 231.158 27.2386 231.672 26.2034C226.427 19.8901 226.833 10.5337 232.681 4.68859C235.705 1.66459 239.716 0 243.993 0ZM237.081 27.7709C242.436 30.918 249.243 30.0441 253.639 25.6468C258.962 20.3253 258.962 11.6747 253.634 6.35318C248.317 1.0317 239.66 1.0317 234.338 6.35318C229.244 11.4475 228.996 19.6543 233.765 25.0417C233.89 25.1856 233.96 25.3607 233.981 25.5358C234.025 25.7196 234.013 25.9138 233.934 26.1028C233.445 27.2178 232.612 28.65 231.289 29.6141H231.296C232.444 29.6141 234.176 29.328 235.94 27.9599C235.96 27.9408 235.986 27.9218 236.012 27.9079C236.293 27.627 236.729 27.5628 237.081 27.7709ZM245.113 16.003C245.113 15.3823 244.61 14.8794 243.99 14.8794C243.37 14.8794 242.865 15.3823 242.865 16.003C242.865 16.6221 243.37 17.1249 243.99 17.1249C244.61 17.1249 245.113 16.6221 245.113 16.003ZM249.785 14.8794C250.405 14.8794 250.91 15.3823 250.91 16.003C250.91 16.6221 250.405 17.1249 249.785 17.1249C249.165 17.1249 248.662 16.6221 248.662 16.003C248.662 15.3823 249.165 14.8794 249.785 14.8794ZM239.316 16.003C239.316 15.3823 238.812 14.8794 238.191 14.8794C237.571 14.8794 237.068 15.3823 237.068 16.003C237.068 16.6221 237.571 17.1249 238.191 17.1249C238.812 17.1249 239.316 16.6221 239.316 16.003Z" fill="#DDDDDD"/>
<path d="M32 15.5891C32 24.197 24.966 31.1764 16.2882 31.1764C13.536 31.1764 10.9492 30.4722 8.69658 29.2393L0 32.0017L2.83406 23.636C1.4051 21.2879 0.58148 18.5306 0.58148 15.5874C0.58148 6.97946 7.61377 3.05176e-05 16.2916 3.05176e-05C24.9677 0.00173573 32 6.97946 32 15.5891ZM16.2882 2.48623C9.00522 2.48623 3.08132 8.36409 3.08132 15.5925C3.08132 18.4589 4.01577 21.114 5.5965 23.2745L3.94757 28.1394L9.02227 26.528C11.1095 27.8973 13.6059 28.6936 16.2882 28.6936C23.5711 28.6936 29.4967 22.8158 29.4967 15.5891C29.4985 8.36409 23.5711 2.48623 16.2882 2.48623ZM24.2225 19.1802C24.1236 19.0217 23.8678 18.9262 23.4842 18.7335C23.1005 18.5425 21.2043 17.6183 20.853 17.4938C20.4983 17.3659 20.2409 17.3011 19.9851 17.6831C19.731 18.0667 18.9926 18.9262 18.7659 19.1819C18.5425 19.4394 18.3174 19.4701 17.932 19.2826C17.5466 19.0882 16.3052 18.6874 14.8336 17.3864C13.6894 16.3718 12.917 15.1218 12.6936 14.7399C12.4668 14.3579 12.6697 14.1516 12.8607 13.9606C13.0329 13.7884 13.2461 13.5138 13.4388 13.2904C13.6332 13.0671 13.6963 12.9102 13.8241 12.6544C13.9503 12.3986 13.8872 12.1769 13.7918 11.9843C13.6963 11.7916 12.9272 9.91413 12.6049 9.14849C12.2843 8.38455 11.9638 8.51074 11.7387 8.51074C11.5136 8.51074 11.2578 8.48005 11.0003 8.48005C10.7445 8.48005 10.3268 8.57213 9.97378 8.9558C9.62251 9.33777 8.62837 10.262 8.62837 12.1428C8.62837 14.0254 10.0062 15.8397 10.1989 16.0938C10.3933 16.3479 12.8641 20.333 16.7776 21.8625C20.6944 23.3904 20.6944 22.8806 21.4004 22.8158C22.1081 22.751 23.6786 21.8932 23.9974 21.0014C24.3197 20.1062 24.3197 19.3388 24.2225 19.1802Z" fill="#DDDDDD"/>
</svg>
